<?xml version="1.0" encoding="UTF-8"?>
<svg id="Layer_2" data-name="Layer 2" xmlns="http://www.w3.org/2000/svg" viewBox="0 0 78.36 41.76">
  <defs>
    <style>
      .cls-1 {
        fill: #fff;
      }

      .cls-2 {
        fill: #d0e0f2;
      }

      .cls-3 {
        opacity: .43;
      }
    </style>
  </defs>
  <g id="atmosphere">
    <g>
      <g>
        <g class="cls-3">
          <path class="cls-2" d="M10.21,16.62s2.85-14.24,17.09-6.65c0,0-.47-8.43,7-3.8,0,0,6.41-13.41,16.49-.71,0,0,5.46-2.26,7.12,2.85,0,0,6.05-10.8,9.73,1.31,0,0,6.53-1.07,7,5.93,0,0,4.63,2.29,3.56,8.8s-7.36,4.49-8.54,3.3c0,0,.24,4.27-4.39,3.32,0,0-.71,7.24-5.81,8.66s-9.73-1.54-10.68-3.09c0,0-6.65,3.2-11.15-2.73,0,0-3.2,4.98-11.51,1.78s-7.83-5.81-7.83-5.81c0,0-3.56,3.32-10.8,1.19S.12,27.89,0,22.08s10.21-5.46,10.21-5.46Z"/>
          <g>
            <path class="cls-1" d="M78.2,24.35s0,0,0,0c.14-.82,.18-1.58,.15-2.27l-.15,2.27Z"/>
            <path class="cls-1" d="M4.84,23.84c3.26,.81,4.98,4.52,4.98,4.52,0,0,1.81-3.08-3.17-6.52,0,0,3.71-1.45,5.52,2.58,0,0,.81-4.03,4.34-3.57,0,0,.36-5.34,3.53-5.79,3.17-.45,6.33,0,7.15,4.62,0,0-6.88-2.81-10.68,4.75,0,0,5.97-2.31,9.32,1.4,0,0,.36-4.07,3.08-3.8,0,0,2.26-4.16,6.52,.09,0,0,.27-3.44,2.9-2.81,0,0,.18-7.24,5.61-7.15,5.43,.09,6.52,1.9,7.42,5.7,0,0-4.8,.36-5.7,4.52,0,0,5.79-3.53,12.49-.27,0,0-.9-3.08-3.44-3.44,0,0,2.81-2.35,7.51,2.71,0,0-.18-5.25,3.62-4.98,3.8,.27,6.15,2.17,7.06,4.98,0,0,.9-4.62-3.35-6.33,0,0,1.9-1.9,5.43,.72,.83,.62,1.45,1.24,1.93,1.84-1.04-1.47-2.26-2.08-2.26-2.08-.47-7-7-5.93-7-5.93-3.68-12.1-9.73-1.31-9.73-1.31-1.66-5.11-7.12-2.85-7.12-2.85-10.09-12.7-16.49,.71-16.49,.71-7.48-4.63-7,3.8-7,3.8-14.24-7.59-17.09,6.65-17.09,6.65C10.21,16.62-.12,16.26,0,22.08c.03,1.26,.05,2.28,.15,3.15,.52-.6,2.08-2.03,4.69-1.38Z"/>
            <path class="cls-1" d="M.77,27.45l-.36-.88c.09,.32,.21,.61,.36,.88Z"/>
          </g>
        </g>
        <g id="eyes">
          <circle cx="39.76" cy="16.17" r="3.55"/>
          <circle cx="47.34" cy="16.17" r="3.55"/>
          <path class="cls-1" d="M39.76,12.86s-1.72,.13-2.41,1.13-1.13,1.72-.83,2.85,1.2,1.89,1.2,1.89c0,0,1.15,.73,2.13,.73,0,0-3.73-2.33-.09-3.28,0,0-4.46-1.25,0-3.31Z"/>
          <path class="cls-1" d="M47.46,12.87s-1.72,.13-2.41,1.13-1.13,1.72-.83,2.85,1.2,1.89,1.2,1.89c0,0,1.15,.73,2.13,.73,0,0-3.73-2.33-.09-3.28,0,0-4.46-1.25,0-3.31Z"/>
          <circle class="cls-1" cx="40.09" cy="14.56" r=".25"/>
          <circle class="cls-1" cx="41.55" cy="16.27" r=".28"/>
          <circle class="cls-1" cx="40.09" cy="18.14" r=".25"/>
          <circle class="cls-1" cx="47.8" cy="14.36" r=".25"/>
          <circle class="cls-1" cx="49.25" cy="16.07" r=".28"/>
          <circle class="cls-1" cx="47.8" cy="17.94" r=".25"/>
        </g>
        <circle cx="44.16" cy="22.63" r="1.29"/>
      </g>
      <g>
        <g class="cls-3">
          <path class="cls-2" d="M49.73,31.97s1.19-5.96,7.15-2.78c0,0-.2-3.53,2.93-1.59,0,0,2.68-5.61,6.91-.3,0,0,2.29-.95,2.98,1.19,0,0,2.53-4.52,4.07,.55,0,0,2.73-.45,2.93,2.48,0,0,1.94,.96,1.49,3.68s-3.08,1.88-3.58,1.38c0,0,.1,1.79-1.84,1.39,0,0-.3,3.03-2.43,3.63s-4.07-.65-4.47-1.29c0,0-2.78,1.34-4.67-1.14,0,0-1.34,2.09-4.82,.75s-3.28-2.43-3.28-2.43c0,0-1.49,1.39-4.52,.5s-3.08-1.29-3.13-3.73,4.27-2.29,4.27-2.29Z"/>
          <g>
            <path class="cls-1" d="M78.2,35.21s0,0,0,0c.06-.35,.07-.66,.06-.95l-.06,.95Z"/>
            <path class="cls-1" d="M47.48,34.99c1.36,.34,2.08,1.89,2.08,1.89,0,0,.76-1.29-1.33-2.73,0,0,1.55-.61,2.31,1.08,0,0,.34-1.69,1.82-1.5,0,0,.15-2.24,1.48-2.42,1.33-.19,2.65,0,2.99,1.93,0,0-2.88-1.18-4.47,1.99,0,0,2.5-.97,3.9,.59,0,0,.15-1.7,1.29-1.59,0,0,.95-1.74,2.73,.04,0,0,.11-1.44,1.21-1.17,0,0,.08-3.03,2.35-2.99,2.27,.04,2.73,.8,3.11,2.39,0,0-2.01,.15-2.39,1.89,0,0,2.42-1.48,5.23-.11,0,0-.38-1.29-1.44-1.44,0,0,1.17-.99,3.14,1.14,0,0-.08-2.2,1.52-2.08,1.59,.11,2.58,.91,2.96,2.08,0,0,.38-1.93-1.4-2.65,0,0,.8-.8,2.27,.3,.35,.26,.61,.52,.81,.77-.44-.61-.95-.87-.95-.87-.2-2.93-2.93-2.48-2.93-2.48-1.54-5.07-4.07-.55-4.07-.55-.7-2.14-2.98-1.19-2.98-1.19-4.22-5.32-6.91,.3-6.91,.3-3.13-1.94-2.93,1.59-2.93,1.59-5.96-3.18-7.15,2.78-7.15,2.78,0,0-4.32-.15-4.27,2.29,.01,.53,.02,.96,.06,1.32,.22-.25,.87-.85,1.96-.58Z"/>
            <path class="cls-1" d="M45.78,36.51l-.15-.37c.04,.13,.09,.26,.15,.37Z"/>
          </g>
        </g>
        <g id="eyes-2" data-name="eyes">
          <circle cx="65.27" cy="31.78" r="1.48"/>
          <circle cx="62.1" cy="31.78" r="1.48"/>
          <path class="cls-1" d="M65.27,30.39s.72,.06,1.01,.47,.47,.72,.35,1.19-.5,.79-.5,.79c0,0-.48,.3-.89,.3,0,0,1.56-.98,.04-1.37,0,0,1.87-.52,0-1.39Z"/>
          <path class="cls-1" d="M62.05,30.4s.72,.06,1.01,.47,.47,.72,.35,1.19-.5,.79-.5,.79c0,0-.48,.3-.89,.3,0,0,1.56-.98,.04-1.37,0,0,1.87-.52,0-1.39Z"/>
          <circle class="cls-1" cx="65.14" cy="31.11" r=".1"/>
          <circle class="cls-1" cx="64.53" cy="31.82" r=".12"/>
          <circle class="cls-1" cx="65.14" cy="32.61" r=".11"/>
          <circle class="cls-1" cx="61.91" cy="31.02" r=".1"/>
          <circle class="cls-1" cx="61.3" cy="31.74" r=".12"/>
          <circle class="cls-1" cx="61.91" cy="32.52" r=".11"/>
        </g>
        <circle cx="63.94" cy="34.49" r=".54"/>
      </g>
    </g>
  </g>
</svg>