<?xml version="1.0" encoding="UTF-8"?>
<svg id="Layer_2" data-name="Layer 2" xmlns="http://www.w3.org/2000/svg" viewBox="0 0 71.07 68.11">
  <defs>
    <style>
      .cls-1 {
        fill: #f99c1c;
      }

      .cls-2 {
        fill: #fff;
      }

      .cls-3 {
        fill: #efe919;
      }
    </style>
  </defs>
  <g id="sunny">
    <g>
      <path class="cls-1" d="M58.75,33.65l12.32-9.21-14.65-1.04,4.92-15.57-12.88,6.28L45.56,.59l-6.56,9.73c-.35-.06-.69-.12-1.04-.16L33.05,0l-3.38,10.59L22.19,1.9V13.79c-.18,.12-.36,.23-.53,.35h0S11.39,7.36,11.39,7.36l4.49,12.42-12.2-1.86,8.43,9.94L0,33.65l11.75,4.08-8.66,7.95,11.76,.23c.08,.13,.15,.25,.23,.38l-4.15,13.16,10.83-6.22,1.15,14.17,8.9-10.07,5.22,10.78,2.73-10.78,10.68,7.93-.69-13.02,11.37,6.14-5.16-13.55,13.94-1.99-11.13-9.19Z"/>
      <circle class="cls-3" cx="35.54" cy="33.4" r="24.33"/>
      <g id="eyes">
        <circle cx="29.58" cy="30.75" r="5.57"/>
        <circle cx="41.49" cy="30.75" r="5.57"/>
        <path class="cls-2" d="M29.58,25.54s-2.7,.21-3.79,1.78-1.78,2.7-1.3,4.48,1.88,2.97,1.88,2.97c0,0,1.8,1.14,3.34,1.14,0,0-5.86-3.66-.14-5.15,0,0-7-1.96,0-5.2Z"/>
        <path class="cls-2" d="M41.67,25.57s-2.7,.21-3.79,1.78-1.78,2.7-1.3,4.48,1.88,2.97,1.88,2.97c0,0,1.8,1.14,3.34,1.14,0,0-5.86-3.66-.14-5.15,0,0-7-1.96,0-5.2Z"/>
        <circle class="cls-2" cx="30.11" cy="28.22" r=".39"/>
        <circle class="cls-2" cx="32.39" cy="30.9" r=".43"/>
        <circle class="cls-2" cx="30.11" cy="33.85" r=".4"/>
        <circle class="cls-2" cx="42.2" cy="27.91" r=".39"/>
        <circle class="cls-2" cx="44.49" cy="30.58" r=".43"/>
        <circle class="cls-2" cx="42.2" cy="33.53" r=".4"/>
      </g>
      <circle cx="36.5" cy="40.9" r="2.03"/>
    </g>
  </g>
</svg>