<?xml version="1.0" encoding="UTF-8"?>
<svg id="Layer_2" data-name="Layer 2" xmlns="http://www.w3.org/2000/svg" viewBox="0 0 78.36 40.02">
  <defs>
    <style>
      .cls-1 {
        fill: #fff;
      }

      .cls-2 {
        fill: #d0e0f2;
      }
    </style>
  </defs>
  <g id="cloudy">
    <g>
      <g>
        <path class="cls-2" d="M10.21,16.62s2.85-14.24,17.09-6.65c0,0-.47-8.43,7-3.8,0,0,6.41-13.41,16.49-.71,0,0,5.46-2.26,7.12,2.85,0,0,6.05-10.8,9.73,1.31,0,0,6.53-1.07,7,5.93,0,0,4.63,2.29,3.56,8.8s-7.36,4.49-8.54,3.3c0,0,.24,4.27-4.39,3.32,0,0-.71,7.24-5.81,8.66s-9.73-1.54-10.68-3.09c0,0-6.65,3.2-11.15-2.73,0,0-3.2,4.98-11.51,1.78s-7.83-5.81-7.83-5.81c0,0-3.56,3.32-10.8,1.19S.12,27.89,0,22.08s10.21-5.46,10.21-5.46Z"/>
        <g>
          <path class="cls-1" d="M78.2,24.35s0,0,0,0c.14-.82,.18-1.58,.15-2.27l-.15,2.27Z"/>
          <path class="cls-1" d="M4.84,23.84c3.26,.81,4.98,4.52,4.98,4.52,0,0,1.81-3.08-3.17-6.52,0,0,3.71-1.45,5.52,2.58,0,0,.81-4.03,4.34-3.57,0,0,.36-5.34,3.53-5.79,3.17-.45,6.33,0,7.15,4.62,0,0-6.88-2.81-10.68,4.75,0,0,5.97-2.31,9.32,1.4,0,0,.36-4.07,3.08-3.8,0,0,2.26-4.16,6.52,.09,0,0,.27-3.44,2.9-2.81,0,0,.18-7.24,5.61-7.15,5.43,.09,6.52,1.9,7.42,5.7,0,0-4.8,.36-5.7,4.52,0,0,5.79-3.53,12.49-.27,0,0-.9-3.08-3.44-3.44,0,0,2.81-2.35,7.51,2.71,0,0-.18-5.25,3.62-4.98,3.8,.27,6.15,2.17,7.06,4.98,0,0,.9-4.62-3.35-6.33,0,0,1.9-1.9,5.43,.72,.83,.62,1.45,1.24,1.93,1.84-1.04-1.47-2.26-2.08-2.26-2.08-.47-7-7-5.93-7-5.93-3.68-12.1-9.73-1.31-9.73-1.31-1.66-5.11-7.12-2.85-7.12-2.85-10.09-12.7-16.49,.71-16.49,.71-7.48-4.63-7,3.8-7,3.8-14.24-7.59-17.09,6.65-17.09,6.65C10.21,16.62-.12,16.26,0,22.08c.03,1.26,.05,2.28,.15,3.15,.52-.6,2.08-2.03,4.69-1.38Z"/>
          <path class="cls-1" d="M.77,27.45l-.36-.88c.09,.32,.21,.61,.36,.88Z"/>
        </g>
      </g>
      <g id="eyes">
        <circle cx="39.76" cy="16.17" r="3.55"/>
        <circle cx="47.34" cy="16.17" r="3.55"/>
        <path class="cls-1" d="M39.76,12.86s-1.72,.13-2.41,1.13-1.13,1.72-.83,2.85,1.2,1.89,1.2,1.89c0,0,1.15,.73,2.13,.73,0,0-3.73-2.33-.09-3.28,0,0-4.46-1.25,0-3.31Z"/>
        <path class="cls-1" d="M47.46,12.87s-1.72,.13-2.41,1.13-1.13,1.72-.83,2.85,1.2,1.89,1.2,1.89c0,0,1.15,.73,2.13,.73,0,0-3.73-2.33-.09-3.28,0,0-4.46-1.25,0-3.31Z"/>
        <circle class="cls-1" cx="40.09" cy="14.56" r=".25"/>
        <circle class="cls-1" cx="41.55" cy="16.27" r=".28"/>
        <circle class="cls-1" cx="40.09" cy="18.14" r=".25"/>
        <circle class="cls-1" cx="47.8" cy="14.36" r=".25"/>
        <circle class="cls-1" cx="49.25" cy="16.07" r=".28"/>
        <circle class="cls-1" cx="47.8" cy="17.94" r=".25"/>
      </g>
      <circle cx="44.16" cy="22.63" r="1.29"/>
    </g>
  </g>
</svg>