<?xml version="1.0" encoding="UTF-8"?>
<svg id="Layer_2" data-name="Layer 2" xmlns="http://www.w3.org/2000/svg" viewBox="0 0 78.56 55.92">
  <defs>
    <style>
      .cls-1 {
        fill: #eaeaea;
      }

      .cls-2 {
        fill: #fff;
      }

      .cls-3 {
        fill: #c6c6c5;
      }

      .cls-4 {
        fill: #61687b;
      }

      .cls-5 {
        fill: none;
        stroke: #020202;
        stroke-miterlimit: 10;
      }
    </style>
  </defs>
  <g id="drizzlew">
    <g>
      <g>
        <path class="cls-3" d="M10.23,16.66s2.86-14.28,17.13-6.66c0,0-.48-8.45,7.02-3.81,0,0,6.42-13.44,16.54-.71,0,0,5.47-2.27,7.14,2.85,0,0,6.07-10.82,9.75,1.31,0,0,6.54-1.07,7.02,5.95,0,0,4.64,2.3,3.57,8.82s-7.38,4.5-8.57,3.31c0,0,.24,4.28-4.4,3.33,0,0-.71,7.26-5.83,8.68s-9.75-1.55-10.71-3.09c0,0-6.66,3.21-11.18-2.74,0,0-3.21,5-11.54,1.78s-7.85-5.83-7.85-5.83c0,0-3.57,3.33-10.83,1.19S.12,27.96,0,22.13s10.23-5.47,10.23-5.47Z"/>
        <g>
          <path class="cls-1" d="M78.4,24.41s0,0,0,0c.14-.83,.18-1.58,.15-2.28l-.15,2.28Z"/>
          <path class="cls-1" d="M4.85,23.9c3.27,.82,4.99,4.54,4.99,4.54,0,0,1.81-3.08-3.18-6.53,0,0,3.72-1.45,5.53,2.58,0,0,.82-4.04,4.35-3.58,0,0,.36-5.35,3.54-5.81,3.18-.45,6.35,0,7.17,4.63,0,0-6.89-2.81-10.71,4.76,0,0,5.99-2.31,9.34,1.41,0,0,.36-4.08,3.08-3.81,0,0,2.27-4.17,6.53,.09,0,0,.27-3.45,2.9-2.81,0,0,.18-7.26,5.62-7.17,5.44,.09,6.53,1.91,7.44,5.72,0,0-4.81,.36-5.72,4.54,0,0,5.81-3.54,12.52-.27,0,0-.91-3.08-3.45-3.45,0,0,2.81-2.36,7.53,2.72,0,0-.18-5.26,3.63-4.99,3.81,.27,6.17,2.18,7.08,4.99,0,0,.91-4.63-3.36-6.35,0,0,1.91-1.91,5.44,.73,.83,.62,1.46,1.25,1.94,1.84-1.05-1.47-2.27-2.08-2.27-2.08-.48-7.02-7.02-5.95-7.02-5.95-3.69-12.13-9.75-1.31-9.75-1.31-1.67-5.12-7.14-2.85-7.14-2.85-10.11-12.73-16.54,.71-16.54,.71-7.49-4.64-7.02,3.81-7.02,3.81-14.28-7.61-17.13,6.66-17.13,6.66C10.23,16.66-.12,16.3,0,22.13c.03,1.26,.05,2.29,.15,3.15,.52-.6,2.09-2.04,4.7-1.38Z"/>
          <path class="cls-1" d="M.77,27.52l-.37-.88c.1,.32,.22,.61,.37,.88Z"/>
        </g>
      </g>
      <path class="cls-4" d="M32.78,29.08s-1.11,1.95,0,2.22,0-2.22,0-2.22Z"/>
      <path class="cls-4" d="M42.71,33.98s-1.11,1.95,0,2.22,0-2.22,0-2.22Z"/>
      <path class="cls-4" d="M39.15,39.01s-1.39,3.07,0,3.48,0-3.48,0-3.48Z"/>
      <path class="cls-4" d="M55.05,32.23s-1.39,3.07,0,3.48,0-3.48,0-3.48Z"/>
      <path class="cls-4" d="M28.32,37.86s-1.65,4.82,0,5.46,0-5.46,0-5.46Z"/>
      <path class="cls-4" d="M34.01,45.63s-1.65,4.82,0,5.46,0-5.46,0-5.46Z"/>
      <path class="cls-4" d="M43.73,51.5s-1.65,3.86,0,4.37,0-4.37,0-4.37Z"/>
      <path class="cls-4" d="M48.27,40.76s-1.65,4.25,0,4.82,0-4.82,0-4.82Z"/>
      <g id="eyes">
        <circle cx="39.32" cy="18.89" r="3.72"/>
        <circle cx="47.27" cy="18.89" r="3.72"/>
        <path class="cls-2" d="M39.32,15.41s-1.8,.14-2.53,1.19-1.19,1.81-.87,2.99,1.26,1.98,1.26,1.98c0,0,1.2,.76,2.23,.76,0,0-3.92-2.45-.09-3.44,0,0-4.68-1.31,0-3.48Z"/>
        <path class="cls-2" d="M47.39,15.43s-1.8,.14-2.53,1.19-1.19,1.81-.87,2.99,1.26,1.98,1.26,1.98c0,0,1.2,.76,2.23,.76,0,0-3.92-2.45-.09-3.44,0,0-4.68-1.31,0-3.48Z"/>
        <circle class="cls-2" cx="39.67" cy="17.2" r=".26"/>
        <circle class="cls-2" cx="41.2" cy="18.99" r=".29"/>
        <circle class="cls-2" cx="39.67" cy="20.96" r=".26"/>
        <circle class="cls-2" cx="47.75" cy="16.99" r=".26"/>
        <circle class="cls-2" cx="49.28" cy="18.78" r=".29"/>
        <circle class="cls-2" cx="47.75" cy="20.75" r=".26"/>
      </g>
      <line class="cls-5" x1="39.6" y1="24.7" x2="46.48" y2="24.7"/>
    </g>
  </g>
</svg>