<?xml version="1.0" encoding="UTF-8"?>
<svg id="Layer_2" data-name="Layer 2" xmlns="http://www.w3.org/2000/svg" viewBox="0 0 69.99 75.11">
  <defs>
    <style>
      .cls-1 {
        fill: #fff;
      }

      .cls-2 {
        fill: #aad9ee;
      }
    </style>
  </defs>
  <g id="snowflake">
    <g>
      <path class="cls-2" d="M64.09,51.14l-5.11-2.93,2.86-.71c1.93-.48,3.14-2.26,2.72-3.98s-2.34-2.72-4.26-2.23l-9.33,2.33-1.84-1.06c2.04-1.66,4.33-3.92,4.01-5.53-.31-1.57-2.28-3.33-3.99-4.6l1.95-1.13,9.15,2.5c1.92,.52,3.85-.43,4.31-2.14h0c.47-1.7-.71-3.51-2.63-4.03l-3.06-.84,5.15-2.99c1.84-1.07,2.52-3.34,1.51-5.08s-3.32-2.28-5.16-1.21l-4.92,2.85,.72-2.54c.54-1.91-.4-3.85-2.1-4.33h0c-1.7-.48-3.52,.68-4.06,2.59l-2.51,8.89-1.85,1.07c-.65-2.72-1.64-5.68-2.93-5.98-1.39-.33-4.04,.63-6.05,1.5v-3.04l6.64-6.49c1.42-1.39,1.57-3.54,.34-4.8-1.24-1.26-3.39-1.16-4.81,.23l-2.17,2.12V3.86c0-2.13-1.63-3.86-3.64-3.86s-3.64,1.73-3.64,3.86v5.6l-1.93-2c-1.38-1.43-3.53-1.6-4.8-.38h0c-1.27,1.22-1.19,3.38,.18,4.81l6.54,6.81v2.63c-2.64-.67-5.4-1.12-6.17-.69-.76,.43-1.36,3.59-1.72,6.14l-3.35-1.92-2.14-8.66c-.48-1.93-2.25-3.15-3.97-2.73s-2.72,2.33-2.25,4.26l.67,2.73-4.88-2.8c-1.85-1.06-4.16-.5-5.15,1.24s-.31,4.01,1.54,5.07l4.99,2.86-2.93,.7c-1.93,.46-3.17,2.23-2.76,3.95h0c.41,1.72,2.31,2.74,4.24,2.28l9.57-2.27,2.32,1.33c-1.62,1.41-3.16,3.13-3.19,4.61-.04,1.68,1.78,3.49,3.5,4.81l-2.89,1.68-9.63-2.59c-1.92-.52-3.85,.45-4.31,2.15-.46,1.71,.72,3.51,2.64,4.03l3.48,.94-4.96,2.87c-1.84,1.07-2.52,3.34-1.51,5.08,1.01,1.74,3.32,2.28,5.16,1.21l4.2-2.44-.59,2.12c-.53,1.91,.42,3.85,2.12,4.32,1.7,.47,3.51-.69,4.05-2.61l2.35-8.43,3.58-2.08c.61,2.74,1.56,5.84,2.8,6.24,1.12,.36,3.29-.31,5.19-1.08v2.8l-6.58,6.57c-1.41,1.4-1.53,3.56-.28,4.81,1.25,1.25,3.4,1.13,4.81-.28l2.06-2.05v5.75c0,2.13,1.63,3.86,3.64,3.86s3.64-1.73,3.64-3.86v-5.89l2.04,2.08c1.39,1.42,3.54,1.56,4.8,.32,1.26-1.24,1.15-3.39-.24-4.81l-6.61-6.73v-3.11c2.71,.78,6.11,1.6,7.18,1.13,.96-.42,1.53-2.91,1.86-5.24l1.97,1.13,2.28,8.83c.5,1.92,2.29,3.12,4,2.68,1.71-.44,2.7-2.36,2.2-4.28l-.72-2.79,5.02,2.88c1.85,1.06,4.16,.5,5.15-1.24s.31-4.01-1.54-5.07Z"/>
      <path class="cls-2" d="M57.45,6.11l-.94-.11,.38-.28c.26-.19,.32-.53,.15-.76s-.52-.26-.77-.06l-1.24,.93-.34-.04c.2-.37,.4-.85,.25-1.07-.14-.21-.55-.35-.88-.43l.22-.29,1.51-.2c.32-.04,.54-.3,.51-.59h0c-.04-.28-.32-.48-.64-.43l-.5,.07,.58-.76c.21-.27,.16-.65-.09-.85s-.63-.13-.84,.14l-.55,.73-.05-.42c-.04-.32-.3-.55-.58-.51h0c-.28,.03-.48,.32-.44,.64l.18,1.47-.21,.27c-.27-.36-.6-.74-.81-.7-.23,.04-.56,.34-.8,.6l-.19-.45,.58-1.38c.12-.29,.01-.62-.25-.73-.26-.11-.57,.04-.7,.33l-.19,.45-.36-.85c-.13-.32-.48-.47-.78-.34s-.43,.48-.3,.8l.35,.83-.41-.18c-.29-.13-.62-.02-.73,.24h0c-.11,.26,.03,.57,.33,.7l1.39,.6,.16,.39c-.43,.07-.87,.17-.96,.28-.09,.11,.02,.62,.13,1.02l-.62-.08-.86-1.15c-.19-.26-.53-.33-.76-.16s-.26,.51-.07,.77l.27,.36-.9-.11c-.34-.04-.65,.18-.69,.5s.2,.61,.54,.65l.92,.11-.39,.29c-.26,.19-.33,.53-.16,.76h0c.17,.23,.51,.26,.77,.07l1.27-.93,.43,.05c-.15,.31-.27,.66-.19,.88,.1,.25,.48,.41,.82,.49l-.32,.43-1.59,.22c-.32,.04-.54,.31-.5,.59,.04,.28,.33,.47,.64,.43l.57-.08-.55,.73c-.21,.27-.16,.65,.09,.85,.26,.19,.63,.13,.84-.14l.47-.62,.04,.35c.04,.32,.3,.54,.58,.51,.28-.04,.48-.32,.44-.64l-.18-1.39,.4-.53c.26,.37,.59,.77,.8,.75,.19-.02,.47-.25,.7-.48l.17,.41-.56,1.38c-.12,.3,0,.62,.26,.73,.26,.11,.57-.05,.69-.34l.18-.43,.36,.85c.13,.32,.48,.47,.78,.34s.43-.48,.3-.8l-.37-.87,.43,.18c.29,.12,.62,.01,.73-.25,.11-.26-.04-.57-.34-.7l-1.4-.58-.19-.46c.45-.05,1-.14,1.13-.28,.12-.12,.05-.53-.05-.89l.36,.04,.89,1.16c.19,.25,.53,.32,.76,.15,.23-.17,.25-.52,.06-.77l-.28-.37,.92,.11c.34,.04,.65-.18,.69-.5s-.2-.61-.54-.65Z"/>
      <path class="cls-2" d="M11.44,8.94l-.94-.11,.38-.28c.26-.19,.32-.53,.15-.76s-.52-.26-.77-.06l-1.24,.93-.34-.04c.2-.37,.4-.85,.25-1.07-.14-.21-.55-.35-.88-.43l.22-.29,1.51-.2c.32-.04,.54-.3,.51-.59h0c-.04-.28-.32-.48-.64-.43l-.5,.07,.58-.76c.21-.27,.16-.65-.09-.85s-.63-.13-.84,.14l-.55,.73-.05-.42c-.04-.32-.3-.55-.58-.51h0c-.28,.03-.48,.32-.44,.64l.18,1.47-.21,.27c-.27-.36-.6-.74-.81-.7-.23,.04-.56,.34-.8,.6l-.19-.45,.58-1.38c.12-.29,.01-.62-.25-.73-.26-.11-.57,.04-.7,.33l-.19,.45-.36-.85c-.13-.32-.48-.47-.78-.34s-.43,.48-.3,.8l.35,.83-.41-.18c-.29-.13-.62-.02-.73,.24h0c-.11,.26,.03,.57,.33,.7l1.39,.6,.16,.39c-.43,.07-.87,.17-.96,.28-.09,.11,.02,.62,.13,1.02l-.62-.08-.86-1.15c-.19-.26-.53-.33-.76-.16s-.26,.51-.07,.77l.27,.36-.9-.11c-.34-.04-.65,.18-.69,.5s.2,.61,.54,.65l.92,.11-.39,.29c-.26,.19-.33,.53-.16,.76h0c.17,.23,.51,.26,.77,.07l1.27-.93,.43,.05c-.15,.31-.27,.66-.19,.88,.1,.25,.48,.41,.82,.49l-.32,.43-1.59,.22c-.32,.04-.54,.31-.5,.59,.04,.28,.33,.47,.64,.43l.57-.08-.55,.73c-.21,.27-.16,.65,.09,.85,.26,.19,.63,.13,.84-.14l.47-.62,.04,.35c.04,.32,.3,.54,.58,.51,.28-.04,.48-.32,.44-.64l-.18-1.39,.4-.53c.26,.37,.59,.77,.8,.75,.19-.02,.47-.25,.7-.48l.17,.41-.56,1.38c-.12,.3,0,.62,.26,.73,.26,.11,.57-.05,.69-.34l.18-.43,.36,.85c.13,.32,.48,.47,.78,.34s.43-.48,.3-.8l-.37-.87,.43,.18c.29,.12,.62,.01,.73-.25,.11-.26-.04-.57-.34-.7l-1.4-.58-.19-.46c.45-.05,1-.14,1.13-.28,.12-.12,.05-.53-.05-.89l.36,.04,.89,1.16c.19,.25,.53,.32,.76,.15,.23-.17,.25-.52,.06-.77l-.28-.37,.92,.11c.34,.04,.65-.18,.69-.5s-.2-.61-.54-.65Z"/>
      <path class="cls-2" d="M69.44,66.26l-.94-.11,.38-.28c.26-.19,.32-.53,.15-.76s-.52-.26-.77-.06l-1.24,.93-.34-.04c.2-.37,.4-.85,.25-1.07-.14-.21-.55-.35-.88-.43l.22-.29,1.51-.2c.32-.04,.54-.3,.51-.59h0c-.04-.28-.32-.48-.64-.43l-.5,.07,.58-.76c.21-.27,.16-.65-.09-.85s-.63-.13-.84,.14l-.55,.73-.05-.42c-.04-.32-.3-.55-.58-.51h0c-.28,.03-.48,.32-.44,.64l.18,1.47-.21,.27c-.27-.36-.6-.74-.81-.7-.23,.04-.56,.34-.8,.6l-.19-.45,.58-1.38c.12-.29,.01-.62-.25-.73-.26-.11-.57,.04-.7,.33l-.19,.45-.36-.85c-.13-.32-.48-.47-.78-.34s-.43,.48-.3,.8l.35,.83-.41-.18c-.29-.13-.62-.02-.73,.24h0c-.11,.26,.03,.57,.33,.7l1.39,.6,.16,.39c-.43,.07-.87,.17-.96,.28-.09,.11,.02,.62,.13,1.02l-.62-.08-.86-1.15c-.19-.26-.53-.33-.76-.16s-.26,.51-.07,.77l.27,.36-.9-.11c-.34-.04-.65,.18-.69,.5s.2,.61,.54,.65l.92,.11-.39,.29c-.26,.19-.33,.53-.16,.76h0c.17,.23,.51,.26,.77,.07l1.27-.93,.43,.05c-.15,.31-.27,.66-.19,.88,.1,.25,.48,.41,.82,.49l-.32,.43-1.59,.22c-.32,.04-.54,.31-.5,.59,.04,.28,.33,.47,.64,.43l.57-.08-.55,.73c-.21,.27-.16,.65,.09,.85,.26,.19,.63,.13,.84-.14l.47-.62,.04,.35c.04,.32,.3,.54,.58,.51,.28-.04,.48-.32,.44-.64l-.18-1.39,.4-.53c.26,.37,.59,.77,.8,.75,.19-.02,.47-.25,.7-.48l.17,.41-.56,1.38c-.12,.3,0,.62,.26,.73,.26,.11,.57-.05,.69-.34l.18-.43,.36,.85c.13,.32,.48,.47,.78,.34s.43-.48,.3-.8l-.37-.87,.43,.18c.29,.12,.62,.01,.73-.25,.11-.26-.04-.57-.34-.7l-1.4-.58-.19-.46c.45-.05,1-.14,1.13-.28,.12-.12,.05-.53-.05-.89l.36,.04,.89,1.16c.19,.25,.53,.32,.76,.15,.23-.17,.25-.52,.06-.77l-.28-.37,.92,.11c.34,.04,.65-.18,.69-.5s-.2-.61-.54-.65Z"/>
      <path class="cls-2" d="M19.81,69.58l-.94-.11,.38-.28c.26-.19,.32-.53,.15-.76s-.52-.26-.77-.06l-1.24,.93-.34-.04c.2-.37,.4-.85,.25-1.07-.14-.21-.55-.35-.88-.43l.22-.29,1.51-.2c.32-.04,.54-.3,.51-.59h0c-.04-.28-.32-.48-.64-.43l-.5,.07,.58-.76c.21-.27,.16-.65-.09-.85s-.63-.13-.84,.14l-.55,.73-.05-.42c-.04-.32-.3-.55-.58-.51h0c-.28,.03-.48,.32-.44,.64l.18,1.47-.21,.27c-.27-.36-.6-.74-.81-.7-.23,.04-.56,.34-.8,.6l-.19-.45,.58-1.38c.12-.29,.01-.62-.25-.73-.26-.11-.57,.04-.7,.33l-.19,.45-.36-.85c-.13-.32-.48-.47-.78-.34s-.43,.48-.3,.8l.35,.83-.41-.18c-.29-.13-.62-.02-.73,.24h0c-.11,.26,.03,.57,.33,.7l1.39,.6,.16,.39c-.43,.07-.87,.17-.96,.28-.09,.11,.02,.62,.13,1.02l-.62-.08-.86-1.15c-.19-.26-.53-.33-.76-.16s-.26,.51-.07,.77l.27,.36-.9-.11c-.34-.04-.65,.18-.69,.5s.2,.61,.54,.65l.92,.11-.39,.29c-.26,.19-.33,.53-.16,.76h0c.17,.23,.51,.26,.77,.07l1.27-.93,.43,.05c-.15,.31-.27,.66-.19,.88,.1,.25,.48,.41,.82,.49l-.32,.43-1.59,.22c-.32,.04-.54,.31-.5,.59,.04,.28,.33,.47,.64,.43l.57-.08-.55,.73c-.21,.27-.16,.65,.09,.85,.26,.19,.63,.13,.84-.14l.47-.62,.04,.35c.04,.32,.3,.54,.58,.51,.28-.04,.48-.32,.44-.64l-.18-1.39,.4-.53c.26,.37,.59,.77,.8,.75,.19-.02,.47-.25,.7-.48l.17,.41-.56,1.38c-.12,.3,0,.62,.26,.73,.26,.11,.57-.05,.69-.34l.18-.43,.36,.85c.13,.32,.48,.47,.78,.34s.43-.48,.3-.8l-.37-.87,.43,.18c.29,.12,.62,.01,.73-.25,.11-.26-.04-.57-.34-.7l-1.4-.58-.19-.46c.45-.05,1-.14,1.13-.28,.12-.12,.05-.53-.05-.89l.36,.04,.89,1.16c.19,.25,.53,.32,.76,.15,.23-.17,.25-.52,.06-.77l-.28-.37,.92,.11c.34,.04,.65-.18,.69-.5s-.2-.61-.54-.65Z"/>
      <g id="eyes">
        <circle cx="30.24" cy="35.06" r="3.03"/>
        <circle cx="36.72" cy="35.06" r="3.03"/>
        <path class="cls-1" d="M30.24,32.23s-1.47,.12-2.06,.97-.97,1.47-.71,2.44,1.02,1.62,1.02,1.62c0,0,.98,.62,1.82,.62,0,0-3.19-1.99-.07-2.81,0,0-3.81-1.07,0-2.83Z"/>
        <path class="cls-1" d="M36.82,32.24s-1.47,.12-2.06,.97-.97,1.47-.71,2.44,1.02,1.62,1.02,1.62c0,0,.98,.62,1.82,.62,0,0-3.19-1.99-.07-2.81,0,0-3.81-1.07,0-2.83Z"/>
        <circle class="cls-1" cx="30.52" cy="33.69" r=".21"/>
        <circle class="cls-1" cx="31.77" cy="35.15" r=".24"/>
        <circle class="cls-1" cx="30.52" cy="36.75" r=".22"/>
        <circle class="cls-1" cx="37.11" cy="33.52" r=".21"/>
        <circle class="cls-1" cx="38.35" cy="34.98" r=".24"/>
        <circle class="cls-1" cx="37.11" cy="36.58" r=".22"/>
      </g>
      <circle cx="34" cy="40.59" r="1.11"/>
    </g>
  </g>
</svg>