<?xml version="1.0" encoding="UTF-8"?>
<svg id="Layer_2" data-name="Layer 2" xmlns="http://www.w3.org/2000/svg" viewBox="0 0 80 61.27">
  <defs>
    <style>
      .cls-1 {
        fill: #fff;
      }

      .cls-2 {
        fill: #efe919;
      }

      .cls-3 {
        fill: #c2c1c0;
      }

      .cls-4 {
        fill: #888889;
      }

      .cls-5 {
        fill: none;
        stroke: #000;
        stroke-miterlimit: 10;
      }
    </style>
  </defs>
  <g id="thunderstorm">
    <g>
      <g>
        <polygon class="cls-2" points="27.21 33.56 20.42 45.02 33.74 45.02 27.08 59.93 44.14 41.1 34.12 39.84 38.63 34.4 34.4 27.13 27.21 33.56"/>
        <polygon class="cls-2" points="53.14 35.3 48.18 46.58 57.9 46.58 53.04 61.27 65.49 42.72 58.17 41.48 61.47 36.12 58.38 28.96 53.14 35.3"/>
        <path class="cls-4" d="M10.42,16.97s2.91-14.54,17.45-6.78c0,0-.48-8.6,7.15-3.88,0,0,6.54-13.69,16.84-.73,0,0,5.57-2.31,7.27,2.9,0,0,6.18-11.02,9.93,1.34,0,0,6.66-1.09,7.15,6.06,0,0,4.72,2.34,3.63,8.99s-7.51,4.58-8.72,3.37c0,0,.24,4.36-4.48,3.39,0,0-.73,7.39-5.94,8.84s-9.93-1.57-10.9-3.15c0,0-6.78,3.27-11.39-2.79,0,0-3.27,5.09-11.75,1.82s-8-5.94-8-5.94c0,0-3.63,3.39-11.02,1.21S.12,28.48,0,22.54s10.42-5.57,10.42-5.57Z"/>
        <g>
          <path class="cls-3" d="M79.84,24.86s0,0,0,0c.14-.84,.18-1.61,.15-2.32l-.15,2.32Z"/>
          <path class="cls-3" d="M4.94,24.34c3.33,.83,5.08,4.62,5.08,4.62,0,0,1.85-3.14-3.23-6.65,0,0,3.79-1.48,5.64,2.63,0,0,.83-4.11,4.43-3.65,0,0,.37-5.45,3.6-5.91,3.23-.46,6.47,0,7.3,4.71,0,0-7.02-2.87-10.9,4.85,0,0,6.1-2.35,9.52,1.43,0,0,.37-4.16,3.14-3.88,0,0,2.31-4.25,6.65,.09,0,0,.28-3.51,2.96-2.86,0,0,.18-7.39,5.73-7.3,5.54,.09,6.65,1.94,7.58,5.82,0,0-4.9,.37-5.82,4.62,0,0,5.91-3.6,12.75-.28,0,0-.92-3.14-3.51-3.51,0,0,2.86-2.4,7.67,2.77,0,0-.18-5.36,3.7-5.08,3.88,.28,6.28,2.22,7.21,5.08,0,0,.92-4.71-3.42-6.47,0,0,1.94-1.94,5.54,.74,.85,.63,1.48,1.27,1.97,1.88-1.06-1.5-2.31-2.12-2.31-2.12-.48-7.15-7.15-6.06-7.15-6.06-3.76-12.36-9.93-1.34-9.93-1.34-1.7-5.21-7.27-2.9-7.27-2.9-10.3-12.96-16.84,.73-16.84,.73-7.63-4.72-7.15,3.88-7.15,3.88-14.54-7.75-17.45,6.78-17.45,6.78C10.42,16.97-.12,16.6,0,22.54c.03,1.28,.05,2.33,.15,3.21,.53-.61,2.13-2.07,4.79-1.41Z"/>
          <path class="cls-3" d="M.79,28.03l-.37-.9c.1,.33,.22,.62,.37,.9Z"/>
        </g>
      </g>
      <path class="cls-5" d="M38.62,24.77s1.47-1.73,2.82-.39,2.06,1.22,2.63,.77,.82-1.22,1.53-1.28,1.23-.07,1.87,.8,2.18-.54,2.18-.54"/>
      <g id="eyes">
        <circle cx="39.62" cy="18.1" r="4"/>
        <circle cx="48.18" cy="18.1" r="4"/>
        <path class="cls-1" d="M39.62,14.36s-1.94,.15-2.72,1.28-1.28,1.94-.93,3.22,1.35,2.13,1.35,2.13c0,0,1.29,.82,2.4,.82,0,0-4.21-2.63-.1-3.7,0,0-5.03-1.41,0-3.74Z"/>
        <path class="cls-1" d="M48.31,14.38s-1.94,.15-2.72,1.28-1.28,1.94-.93,3.22,1.35,2.13,1.35,2.13c0,0,1.29,.82,2.4,.82,0,0-4.21-2.63-.1-3.7,0,0-5.03-1.41,0-3.74Z"/>
        <circle class="cls-1" cx="40" cy="16.29" r=".28"/>
        <circle class="cls-1" cx="41.64" cy="18.21" r=".31"/>
        <circle class="cls-1" cx="40" cy="20.33" r=".28"/>
        <circle class="cls-1" cx="48.69" cy="16.06" r=".28"/>
        <circle class="cls-1" cx="50.33" cy="17.98" r=".31"/>
        <circle class="cls-1" cx="48.69" cy="20.1" r=".28"/>
      </g>
    </g>
  </g>
</svg>